<svg xmlns="http://www.w3.org/2000/svg" viewBox="0 0 400 400" width="400" height="400" role="img" aria-labelledby="profileTitle">
  <title id="profileTitle">비즈니스 기획자 임호재 프로필 일러스트</title>

  <!-- 배경 원 -->
  <circle cx="200" cy="200" r="200" fill="#eef2f6"/>

  <!-- 어깨 / 정장 -->
  <path d="M60 400 C60 300 130 260 200 260 C270 260 340 300 340 400 Z" fill="#2f5d8a"/>

  <!-- 셔츠 카라 -->
  <path d="M170 268 L200 300 L230 268 L215 258 L200 275 L185 258 Z" fill="#ffffff"/>

  <!-- 목 -->
  <rect x="180" y="215" width="40" height="55" rx="18" fill="#e3b997"/>

  <!-- 얼굴 -->
  <circle cx="200" cy="165" r="72" fill="#f0c9a2"/>

  <!-- 헤어 -->
  <path d="M128 155 C124 100 160 68 200 68 C240 68 276 100 272 155 C272 120 240 132 200 132 C160 132 128 120 128 155 Z" fill="#3a3a3a"/>

  <!-- 눈 -->
  <circle cx="176" cy="168" r="5" fill="#2b2b2b"/>
  <circle cx="224" cy="168" r="5" fill="#2b2b2b"/>

  <!-- 은은한 미소 -->
  <path d="M178 196 Q200 214 222 196" stroke="#8a5a3c" stroke-width="4" fill="none" stroke-linecap="round"/>

  <!-- 안경 (젠틀한 인상) -->
  <g fill="none" stroke="#2f5d8a" stroke-width="4">
    <circle cx="176" cy="168" r="20"/>
    <circle cx="224" cy="168" r="20"/>
    <line x1="196" y1="168" x2="204" y2="168"/>
  </g>
</svg>
